<svg width="60" height="45" viewBox="0 0 60 45" fill="none" xmlns="http://www.w3.org/2000/svg">
<path fill-rule="evenodd" clip-rule="evenodd" d="M16.7775 0.571289H54.3383C57.7211 0.571289 60.3489 3.42786 59.9618 6.67641L55.9885 40.0071C55.6588 42.772 53.2411 44.857 50.3648 44.857H12.804C9.42131 44.857 6.79338 42.0006 7.18047 38.7519L7.38931 37H11.9682L11.6993 39.2557C11.6232 39.8938 12.1366 40.4578 12.804 40.4578H50.3648C50.9298 40.4578 51.4048 40.0475 51.4697 39.5033L55.443 6.1727C55.5191 5.53451 55.0057 4.97053 54.338 4.97053H44.6615L43.1537 15.3498C42.9958 16.4357 42.0353 17.2434 40.9014 17.2434H27.8256C26.4457 17.2434 25.3813 16.0618 25.5734 14.7377L26.9925 4.97068H16.7775C16.2125 4.97068 15.7375 5.38098 15.6726 5.92517L14.8292 13H10.2503L11.1538 5.42116C11.4835 2.65624 13.9012 0.571289 16.7775 0.571289ZM38.9244 12.844L40.0684 4.97053H31.586L30.442 12.844H38.9244Z" fill="#F58634"/>
<path d="M16.8886 30H2.11138C0.945334 30 0 30.8955 0 32C0 33.1045 0.945334 34 2.11138 34H16.8886C18.0547 34 19 33.1045 19 32C19 30.8955 18.0548 30 16.8886 30Z" fill="#039251"/>
<path d="M17.8391 23H5.16094C3.96753 23 3 23.8955 3 25C3 26.1045 3.96753 27 5.16094 27H17.8391C19.0325 27 20 26.1045 20 25C20 23.8955 19.0326 23 17.8391 23Z" fill="#039251"/>
<path d="M19.6471 16H8.35287C7.05346 16 6 16.8955 6 18C6 19.1045 7.05346 20 8.35287 20H19.6471C20.9465 20 22 19.1045 22 18C22 16.8955 20.9467 16 19.6471 16Z" fill="#039251"/>
</svg>
