<svg width="60" height="60" viewBox="0 0 60 60" fill="none" xmlns="http://www.w3.org/2000/svg">
<path d="M12.4219 45.9341C13.3927 45.9341 14.1797 45.1471 14.1797 44.1763C14.1797 43.2055 13.3927 42.4185 12.4219 42.4185C11.4511 42.4185 10.6641 43.2055 10.6641 44.1763C10.6641 45.1471 11.4511 45.9341 12.4219 45.9341Z" fill="#039251"/>
<path d="M58.2422 49.4492H54.6046C55.7106 47.9792 56.3672 46.1529 56.3672 44.1758C56.3672 39.3295 52.4244 35.3867 47.5781 35.3867H47.5733C48.6793 33.9167 49.3359 32.0904 49.3359 30.1133C49.3359 25.267 45.3932 21.3242 40.5469 21.3242H22.9688C18.1225 21.3242 14.1797 25.267 14.1797 30.1133C14.1797 32.0904 14.8363 33.9167 15.9423 35.3867H12.4219C7.57559 35.3867 3.63281 39.3295 3.63281 44.1758C3.63281 46.1529 4.28941 47.9792 5.39543 49.4492H1.75781C0.787031 49.4492 0 50.2363 0 51.207C0 52.1778 0.787031 52.9648 1.75781 52.9648H4.30418L6.36234 57.0811C7.26141 58.8792 9.06879 59.9961 11.079 59.9961H48.921C50.9312 59.9961 52.7386 58.8792 53.6377 57.0811L55.6957 52.9648H58.2422C59.213 52.9648 60 52.1778 60 51.207C60 50.2363 59.213 49.4492 58.2422 49.4492ZM29.9952 24.8398H40.5469C43.4546 24.8398 45.8203 27.2055 45.8203 30.1133C45.8203 33.0211 43.4546 35.3867 40.5469 35.3867H30C29.9984 35.3867 29.9967 35.387 29.995 35.387C31.1011 33.917 31.7578 32.0905 31.7578 30.1133C31.7578 28.1362 31.1012 26.3098 29.9952 24.8398ZM33.5156 38.9023C36.4234 38.9023 38.7891 41.268 38.7891 44.1758C38.7891 47.0836 36.4234 49.4492 33.5156 49.4492C30.6079 49.4492 28.2422 47.0836 28.2422 44.1758C28.2422 41.268 30.6079 38.9023 33.5156 38.9023ZM22.9688 24.8398C25.8765 24.8398 28.2422 27.2055 28.2422 30.1133C28.2422 33.0211 25.8765 35.3867 22.9688 35.3867C20.061 35.3867 17.6953 33.0211 17.6953 30.1133C17.6953 27.2055 20.061 24.8398 22.9688 24.8398ZM26.4892 49.4492H19.4483C20.5543 47.9792 21.2109 46.1529 21.2109 44.1758C21.2109 42.1987 20.5543 40.3723 19.4483 38.9023H26.4892C25.3832 40.3723 24.7266 42.1987 24.7266 44.1758C24.7266 46.1529 25.3832 47.9792 26.4892 49.4492ZM7.14844 44.1758C7.14844 41.268 9.5141 38.9023 12.4219 38.9023C15.3296 38.9023 17.6953 41.268 17.6953 44.1758C17.6953 47.0836 15.3296 49.4492 12.4219 49.4492C9.5141 49.4492 7.14844 47.0836 7.14844 44.1758ZM50.4933 55.5088C50.1935 56.1082 49.5911 56.4805 48.921 56.4805H11.079C10.4089 56.4805 9.80648 56.1082 9.50672 55.5088L8.23477 52.9648H51.7652L50.4933 55.5088ZM47.5781 49.4492H40.5421C41.6481 47.9792 42.3047 46.1529 42.3047 44.1758C42.3047 42.1987 41.6481 40.3723 40.5421 38.9023H47.5781C50.4859 38.9023 52.8516 41.268 52.8516 44.1758C52.8516 47.0836 50.4859 49.4492 47.5781 49.4492Z" fill="#F58634"/>
<path d="M22.2744 10.3729C23.9427 9.26064 24.9387 7.37779 24.9385 5.33603C24.9385 3.29427 23.9426 1.41142 22.2743 0.299314C21.4668 -0.239163 20.3752 -0.0209598 19.8367 0.786814C19.2982 1.59459 19.5165 2.68595 20.3243 3.22443C21.0225 3.6899 21.4229 4.45959 21.4229 5.33603C21.4229 6.21248 21.0225 6.98217 20.3243 7.44775C18.656 8.55998 17.66 10.4647 17.66 12.5432C17.66 14.6216 18.656 16.5264 20.3243 17.6385C21.1318 18.177 22.2233 17.9589 22.7619 17.151C23.3004 16.3432 23.0821 15.2519 22.2743 14.7134C21.5863 14.2547 21.1755 13.4434 21.1755 12.5432C21.1757 11.6428 21.5864 10.8315 22.2744 10.3729Z" fill="#039251"/>
<path d="M31.0626 10.3729C32.7308 9.26064 33.7268 7.37779 33.7268 5.33603C33.7268 3.29427 32.7308 1.41142 31.0626 0.299314C30.2548 -0.239163 29.1635 -0.0209598 28.625 0.786814C28.0864 1.59459 28.3047 2.68595 29.1125 3.22443C29.8107 3.6899 30.2113 4.45959 30.2113 5.33603C30.2113 6.21248 29.8108 6.98217 29.1126 7.44775C27.4443 8.55998 26.4484 10.4647 26.4484 12.5432C26.4484 14.6216 27.4443 16.5264 29.1126 17.6385C29.9202 18.177 31.0116 17.9589 31.5502 17.151C32.0887 16.3432 31.8704 15.2519 31.0626 14.7134C30.3746 14.2547 29.9639 13.4434 29.9639 12.5432C29.9639 11.6428 30.3746 10.8315 31.0626 10.3729Z" fill="#039251"/>
<path d="M39.8515 10.3729C41.5198 9.26064 42.5158 7.37779 42.5158 5.33603C42.5158 3.29427 41.5198 1.41142 39.8515 0.299314C39.0437 -0.239163 37.9522 -0.0209598 37.4139 0.786814C36.8753 1.59459 37.0936 2.68595 37.9014 3.22443C38.5996 3.6899 39.0001 4.45959 39.0001 5.33603C39.0001 6.21248 38.5996 6.98217 37.9014 7.44775C36.2331 8.55986 35.2371 10.4647 35.2371 12.5431C35.2371 14.6214 36.2331 16.5263 37.9014 17.6385C38.7095 18.1772 39.8009 17.9584 40.339 17.151C40.8776 16.3432 40.6593 15.2519 39.8515 14.7134C39.1635 14.2547 38.7527 13.4434 38.7527 12.5431C38.7527 11.6428 39.1635 10.8315 39.8515 10.3729Z" fill="#039251"/>
<path d="M22.9688 31.8716C23.9396 31.8716 24.7266 31.0846 24.7266 30.1138C24.7266 29.143 23.9396 28.356 22.9688 28.356C21.9979 28.356 21.2109 29.143 21.2109 30.1138C21.2109 31.0846 21.9979 31.8716 22.9688 31.8716Z" fill="#039251"/>
<path d="M33.5156 45.9341C34.4864 45.9341 35.2734 45.1471 35.2734 44.1763C35.2734 43.2055 34.4864 42.4185 33.5156 42.4185C32.5448 42.4185 31.7578 43.2055 31.7578 44.1763C31.7578 45.1471 32.5448 45.9341 33.5156 45.9341Z" fill="#039251"/>
</svg>
