<svg width="30" height="31" viewBox="0 0 30 31" fill="none" xmlns="http://www.w3.org/2000/svg">
<g clip-path="url(#clip0)">
<path d="M17.0254 30.0001H12.2118C11.4078 30.0001 10.7537 29.3461 10.7537 28.542V17.6846H7.94535C7.14132 17.6846 6.48727 17.0304 6.48727 16.2266V11.5742C6.48727 10.7701 7.14132 10.1161 7.94535 10.1161H10.7537V7.78632C10.7537 5.47628 11.4791 3.51092 12.8512 2.10307C14.2294 0.688792 16.1556 -0.0585938 18.4214 -0.0585938L22.0925 -0.0526312C22.8951 -0.0512552 23.548 0.602793 23.548 1.40545V5.7251C23.548 6.52913 22.8942 7.18318 22.0904 7.18318L19.6187 7.1841C18.8649 7.1841 18.6729 7.33523 18.6319 7.38155C18.5642 7.45838 18.4837 7.67555 18.4837 8.27525V10.1158H21.9047C22.1622 10.1158 22.4117 10.1794 22.6261 10.2991C23.0887 10.5575 23.3763 11.0462 23.3763 11.5744L23.3744 16.2268C23.3744 17.0304 22.7204 17.6844 21.9164 17.6844H18.4837V28.542C18.4837 29.3461 17.8295 30.0001 17.0254 30.0001ZM12.5159 28.2379H16.7213V16.8958C16.7213 16.3589 17.1582 15.9222 17.6948 15.9222H21.6123L21.6139 11.8782H17.6946C17.158 11.8782 16.7213 11.4416 16.7213 10.9047V8.27525C16.7213 7.5868 16.7913 6.80387 17.311 6.21541C17.9389 5.50403 18.9284 5.42193 19.6182 5.42193L21.7859 5.42101V1.70908L18.42 1.70358C14.7787 1.70358 12.5159 4.03448 12.5159 7.78632V10.9047C12.5159 11.4414 12.0793 11.8782 11.5426 11.8782H8.24944V15.9222H11.5426C12.0793 15.9222 12.5159 16.3589 12.5159 16.8958V28.2379ZM22.089 1.70954H22.0893H22.089Z" fill="white"/>
</g>
<defs>
<clipPath id="clip0">
<rect width="30" height="30.0587" fill="white"/>
</clipPath>
</defs>
</svg>
