<svg width="30" height="30" viewBox="0 0 30 30" fill="none" xmlns="http://www.w3.org/2000/svg">
<path d="M14.9985 0C8.69836 0 3.57275 5.12561 3.57275 11.4258C3.57275 15.4929 4.80996 17.1239 10.7552 24.9615C11.7872 26.322 12.957 27.864 14.2954 29.6484C14.4614 29.8697 14.7219 30 14.9986 30C15.2753 30 15.5357 29.8697 15.7017 29.6483C17.0323 27.8735 18.1969 26.3374 19.2246 24.982C25.1841 17.1216 26.4243 15.4859 26.4243 11.4258C26.4243 5.12561 21.2987 0 14.9985 0ZM17.8239 23.92C16.9799 25.0332 16.0436 26.2681 14.9984 27.6577C13.946 26.2592 13.0044 25.0179 12.1557 23.8991C6.3726 16.2754 5.33057 14.9016 5.33057 11.4258C5.33057 6.09486 9.66762 1.75781 14.9985 1.75781C20.3295 1.75781 24.6665 6.09486 24.6665 11.4258C24.6665 14.8948 23.6218 16.2728 17.8239 23.92Z" fill="white"/>
<path d="M15.0015 5.27344C11.6091 5.27344 8.84912 8.03338 8.84912 11.4258C8.84912 14.8182 11.6091 17.5781 15.0015 17.5781C18.3939 17.5781 21.1538 14.8182 21.1538 11.4258C21.1538 8.03338 18.3939 5.27344 15.0015 5.27344ZM15.0015 15.8203C12.5783 15.8203 10.6069 13.8489 10.6069 11.4258C10.6069 9.00264 12.5783 7.03125 15.0015 7.03125C17.4246 7.03125 19.396 9.00264 19.396 11.4258C19.396 13.8489 17.4246 15.8203 15.0015 15.8203Z" fill="white"/>
</svg>
