<svg width="40" height="40" viewBox="0 0 40 40" fill="none" xmlns="http://www.w3.org/2000/svg">
<path d="M37.3145 18.0415C35.6381 16.3344 33.4158 15.3461 31.0352 15.2437C31.024 15.0949 31.0156 14.8899 31.0156 14.6094C31.0156 13.46 31.8897 9.94805 32.4407 8.00438L33.0045 6.01562H26.162L25.7037 6.75414C25.5219 7.04711 21.25 14.0509 21.25 24.6094C21.25 29.7787 25.4556 33.9844 30.625 33.9844C35.7944 33.9844 40 29.7787 40 24.6094C40 22.1374 39.0463 19.8049 37.3145 18.0415ZM30.625 30.8594C27.1788 30.8594 24.375 28.0556 24.375 24.6094C24.375 16.85 26.9403 11.1067 27.9541 9.14062H28.9016C28.4527 10.905 27.8906 13.3626 27.8906 14.6094C27.8906 15.5988 27.9641 16.3936 28.3227 17.057C28.6422 17.648 29.3103 18.3518 30.6808 18.3593L30.749 18.361C34.1269 18.4265 36.875 21.2295 36.875 24.6094C36.875 28.0556 34.0712 30.8594 30.625 30.8594Z" fill="#DCDCDC"/>
<path d="M16.0645 18.0415C14.3881 16.3344 12.1658 15.3461 9.78523 15.2437C9.77398 15.0949 9.76562 14.8899 9.76562 14.6094C9.76562 13.46 10.6397 9.94805 11.1907 8.00438L11.7545 6.01562H4.91203L4.45367 6.75414C4.27187 7.04711 0 14.0509 0 24.6094C0 29.7787 4.20563 33.9844 9.375 33.9844C14.5444 33.9844 18.75 29.7787 18.75 24.6094C18.75 22.1374 17.7963 19.8049 16.0645 18.0415ZM9.375 30.8594C5.92875 30.8594 3.125 28.0556 3.125 24.6094C3.125 16.85 5.69031 11.1067 6.70406 9.14062H7.65164C7.20266 10.905 6.64062 13.3626 6.64062 14.6094C6.64062 15.5988 6.71406 16.3936 7.07273 17.057C7.39219 17.648 8.06031 18.3518 9.43078 18.3593L9.49898 18.361C12.8769 18.4265 15.625 21.2295 15.625 24.6094C15.625 28.0556 12.8212 30.8594 9.375 30.8594Z" fill="#DCDCDC"/>
</svg>
