<svg width="60" height="60" viewBox="0 0 60 60" fill="none" xmlns="http://www.w3.org/2000/svg">
<path d="M52.8135 10.1003C52.8135 10.1003 52.8135 5.17156 52.8135 5.16502C52.8135 2.82445 50.4969 1.09044 48.2514 1.5852L45.8909 2.10542L41.0584 1.04033C40.8145 0.986556 40.5619 0.986556 40.318 1.04033L35.4854 2.10542L30.6529 1.04033C30.4091 0.986556 30.1565 0.986556 29.9126 1.04033L25.08 2.10542L20.2475 1.04033C20.0036 0.986556 19.751 0.986556 19.5071 1.04033L14.6745 2.10542L12.314 1.5852C11.1965 1.33902 10.0857 1.58486 9.18478 2.27741C8.26073 2.98784 7.75186 4.01337 7.75186 5.16514C7.75186 5.16514 7.66082 10.4566 7.63239 10.5756C5.83852 18.0748 5.00218 24.3605 5 30.357C4.99794 36.3103 5.82556 42.5569 7.60441 50.0155C7.63789 50.1558 7.75186 55.5417 7.75186 55.5417C7.75186 56.6933 8.26073 57.719 9.18489 58.4295C10.0857 59.122 11.197 59.3679 12.314 59.1216L14.6745 58.6014L19.507 59.6665C19.7509 59.7203 20.0035 59.7203 20.2474 59.6665L25.0799 58.6014L29.9123 59.6665C30.1562 59.7203 30.4088 59.7203 30.6527 59.6665L35.4852 58.6014C35.4852 58.6014 40.3164 59.6662 40.3177 59.6665C40.5475 59.7172 40.8196 59.719 41.0581 59.6665L45.8906 58.6014L48.2511 59.1216C49.3683 59.3678 50.4794 59.1219 51.3801 58.4295C52.3043 57.7191 52.8132 56.6936 52.8132 55.5417C52.8132 55.5417 52.9456 50.0551 52.9828 49.8984C54.7394 42.4864 55.5584 36.2774 55.5604 30.3582C55.5626 24.2593 54.6893 17.8192 52.8135 10.1003ZM11.1917 5.16502C11.1919 4.97744 11.4264 4.91185 11.5736 4.94442L14.3043 5.54627C14.5482 5.60005 14.8007 5.60005 15.0446 5.54627L19.8771 4.48119L24.7096 5.54627C24.9535 5.60005 25.2061 5.60005 25.45 5.54627L30.2825 4.48119L35.115 5.54627C35.3589 5.60005 35.6115 5.60005 35.8553 5.54627L40.6878 4.48119L45.5203 5.54627C45.7642 5.60005 46.0168 5.60005 46.2607 5.54627C46.2607 5.54627 48.9755 4.94797 48.9913 4.94453C49.1394 4.91185 49.3734 4.98524 49.3734 5.16514V9.02634H11.1913C11.1917 9.02634 11.1917 5.19828 11.1917 5.16502ZM49.3737 55.5415C49.3733 55.7302 49.1414 55.7953 48.9918 55.7621L46.2611 55.1602C46.0173 55.1064 45.7647 55.1064 45.5208 55.1602L40.6883 56.2253C40.6883 56.2253 35.8559 55.1603 35.8558 55.1602C35.6225 55.1087 35.3574 55.1069 35.1154 55.1602L30.2829 56.2253L25.4504 55.1602C25.2066 55.1064 24.954 55.1064 24.7101 55.1602L19.8776 56.2253L15.0451 55.1602C14.8012 55.1064 14.5486 55.1064 14.3047 55.1602C14.3047 55.1602 11.5914 55.7582 11.5741 55.762C11.4269 55.7944 11.192 55.7202 11.192 55.5413V51.6801H49.3741C49.3737 51.6801 49.3737 55.4881 49.3737 55.5415ZM49.8373 48.2403H10.7218C9.16517 41.4816 8.43799 35.7757 8.43983 30.3581C8.44178 24.9281 9.16918 19.2166 10.7224 12.4662H49.8384C51.3944 19.2261 52.1227 24.9489 52.1209 30.3568C52.119 35.7727 51.3918 41.4765 49.8373 48.2403Z" fill="#F58634"/>
<path d="M21.4758 30.5704L27.3465 36.2236L39.0877 23.5039" stroke="#039251" stroke-width="4" stroke-linecap="round" stroke-linejoin="round"/>
</svg>
